<svg width="299" height="61" viewBox="0 0 299 61" fill="none" xmlns="http://www.w3.org/2000/svg">
<path d="M11.7969 39.9609V60H0.078125V3.125H22.2656C26.5365 3.125 30.2865 3.90625 33.5156 5.46875C36.7708 7.03125 39.2708 9.25781 41.0156 12.1484C42.7604 15.013 43.6328 18.2812 43.6328 21.9531C43.6328 27.526 41.7188 31.9271 37.8906 35.1562C34.0885 38.3594 28.8151 39.9609 22.0703 39.9609H11.7969ZM11.7969 30.4688H22.2656C25.3646 30.4688 27.7214 29.7396 29.3359 28.2812C30.9766 26.8229 31.7969 24.7396 31.7969 22.0312C31.7969 19.2448 30.9766 16.9922 29.3359 15.2734C27.6953 13.5547 25.4297 12.6693 22.5391 12.6172H11.7969V30.4688ZM48.6719 38.4766C48.6719 34.2839 49.4792 30.5469 51.0938 27.2656C52.7083 23.9844 55.026 21.4453 58.0469 19.6484C61.0938 17.8516 64.6224 16.9531 68.6328 16.9531C74.3359 16.9531 78.9844 18.6979 82.5781 22.1875C86.1979 25.6771 88.2161 30.4167 88.6328 36.4062L88.7109 39.2969C88.7109 45.7812 86.901 50.9896 83.2812 54.9219C79.6615 58.8281 74.8047 60.7812 68.7109 60.7812C62.6172 60.7812 57.7474 58.8281 54.1016 54.9219C50.4818 51.0156 48.6719 45.7031 48.6719 38.9844V38.4766ZM59.9609 39.2969C59.9609 43.3073 60.7161 46.3802 62.2266 48.5156C63.737 50.625 65.8984 51.6797 68.7109 51.6797C71.4453 51.6797 73.5807 50.638 75.1172 48.5547C76.6536 46.4453 77.4219 43.0859 77.4219 38.4766C77.4219 34.5443 76.6536 31.4974 75.1172 29.3359C73.5807 27.1745 71.4193 26.0938 68.6328 26.0938C65.8724 26.0938 63.737 27.1745 62.2266 29.3359C60.7161 31.4714 59.9609 34.7917 59.9609 39.2969ZM119.414 28.3203C117.878 28.112 116.523 28.0078 115.352 28.0078C111.081 28.0078 108.281 29.4531 106.953 32.3438V60H95.6641V17.7344H106.328L106.641 22.7734C108.906 18.8932 112.044 16.9531 116.055 16.9531C117.305 16.9531 118.477 17.1224 119.57 17.4609L119.414 28.3203ZM141.406 46.2109L149.258 17.7344H161.055L146.797 60H136.016L121.758 17.7344H133.555L141.406 46.2109ZM184.961 60.7812C178.763 60.7812 173.711 58.8802 169.805 55.0781C165.924 51.276 163.984 46.2109 163.984 39.8828V38.7891C163.984 34.5443 164.805 30.7552 166.445 27.4219C168.086 24.0625 170.404 21.4844 173.398 19.6875C176.419 17.8646 179.857 16.9531 183.711 16.9531C189.492 16.9531 194.036 18.776 197.344 22.4219C200.677 26.0677 202.344 31.237 202.344 37.9297V42.5391H175.43C175.794 45.2995 176.888 47.513 178.711 49.1797C180.56 50.8464 182.891 51.6797 185.703 51.6797C190.052 51.6797 193.451 50.1042 195.898 46.9531L201.445 53.1641C199.753 55.5599 197.461 57.4349 194.57 58.7891C191.68 60.1172 188.477 60.7812 184.961 60.7812ZM183.672 26.0938C181.432 26.0938 179.609 26.849 178.203 28.3594C176.823 29.8698 175.938 32.0312 175.547 34.8438H191.25V33.9453C191.198 31.4453 190.521 29.5182 189.219 28.1641C187.917 26.7839 186.068 26.0938 183.672 26.0938ZM219.18 17.7344L219.531 22.6172C222.552 18.8411 226.602 16.9531 231.68 16.9531C236.159 16.9531 239.492 18.2682 241.68 20.8984C243.867 23.5286 244.987 27.4609 245.039 32.6953V60H233.75V32.9688C233.75 30.5729 233.229 28.8411 232.188 27.7734C231.146 26.6797 229.414 26.1328 226.992 26.1328C223.815 26.1328 221.432 27.487 219.844 30.1953V60H208.555V17.7344H219.18ZM265.547 60H254.219V17.7344H265.547V60ZM253.555 6.79688C253.555 5.10417 254.115 3.71094 255.234 2.61719C256.38 1.52344 257.93 0.976562 259.883 0.976562C261.81 0.976562 263.346 1.52344 264.492 2.61719C265.638 3.71094 266.211 5.10417 266.211 6.79688C266.211 8.51562 265.625 9.92188 264.453 11.0156C263.307 12.1094 261.784 12.6562 259.883 12.6562C257.982 12.6562 256.445 12.1094 255.273 11.0156C254.128 9.92188 253.555 8.51562 253.555 6.79688ZM298.633 28.3203C297.096 28.112 295.742 28.0078 294.57 28.0078C290.299 28.0078 287.5 29.4531 286.172 32.3438V60H274.883V17.7344H285.547L285.859 22.7734C288.125 18.8932 291.263 16.9531 295.273 16.9531C296.523 16.9531 297.695 17.1224 298.789 17.4609L298.633 28.3203Z" fill="#070D99"/>
</svg>
